<?xml version="1.0" encoding="UTF-8"?>
<!DOCTYPE svg PUBLIC "-//W3C//DTD SVG 1.1//EN" "http://www.w3.org/Graphics/SVG/1.1/DTD/svg11.dtd">
<svg xmlns="http://www.w3.org/2000/svg" width="1350" height="300" viewBox="0, -300, 1350, 300">
    <desc> Bar Graph </desc>
    <line x1= "0" y1= "0" x2= "1350" y2= "0" stroke="beige" stroke-width="2"></line>
    <line x1= "0" y1="-300" x2="0" y2="0" stroke="beige" stroke-width="2"></line>
    
    <rect width="25" height="33" x="0" y="-33" fill="beige"></rect>
    <rect width="25" height="33" x="0" y="-33" fill="beige"></rect>
    
    <rect width="25" height="277" x="30" y="-277" fill="beige"></rect>
    <rect width="25" height="33" x="0" y="-33" fill="beige"></rect>
    
    <rect width="25" height="10" x="60" y="-10" fill="beige"></rect>
    <rect width="25" height="33" x="0" y="-33" fill="beige"></rect>
    
<!--    <rect width="25" height="1" x="90" y="-1" fill="beige"></rect>
    <rect width="25" height="33" x="0" y="-33" fill="beige"></rect>-->
    
    <rect width="25" height="2" x="120" y="-2" fill="beige"></rect>
    <rect width="25" height="33" x="0" y="-33" fill="beige"></rect>
    
    <rect width="25" height="2" x="150" y="-2" fill="beige"></rect>
    <rect width="25" height="33" x="0" y="-33" fill="beige"></rect>
    
    <rect width="25" height="31" x="180" y="-31" fill="beige"></rect>
    <rect width="25" height="33" x="0" y="-33" fill="beige"></rect>
    
    <rect width="25" height="2" x="210" y="-2" fill="beige"></rect>
    <rect width="25" height="33" x="0" y="-33" fill="beige"></rect>
    
    <rect width="25" height="2" x="240" y="-2" fill="beige"></rect>
    <rect width="25" height="33" x="0" y="-33" fill="beige"></rect>
    
<!--    <rect width="25" height="1" x="270" y="-1" fill="beige"></rect>
    <rect width="25" height="33" x="0" y="-33" fill="beige"></rect>-->
    
    <rect width="25" height="3" x="300" y="-3" fill="beige"></rect>
    <rect width="25" height="33" x="0" y="-33" fill="beige"></rect>
    
<!--    <rect width="25" height="1" x="330" y="-1" fill="beige"></rect>
    <rect width="25" height="33" x="0" y="-33" fill="beige"></rect>-->
    
<!--    <rect width="25" height="1" x="360" y="-1" fill="beige"></rect>
    <rect width="25" height="33" x="0" y="-33" fill="beige"></rect>-->
    
<!--    <rect width="25" height="1" x="390" y="-1" fill="beige"></rect>
    <rect width="25" height="33" x="0" y="-33" fill="beige"></rect>-->
    
    <rect width="25" height="2" x="420" y="-2" fill="beige"></rect>
    <rect width="25" height="33" x="0" y="-33" fill="beige"></rect>
    
<!--    <rect width="25" height="1" x="450" y="-1" fill="beige"></rect>
    <rect width="25" height="33" x="0" y="-33" fill="beige"></rect>-->
    
    <rect width="25" height="4" x="480" y="-4" fill="beige"></rect>
    <rect width="25" height="33" x="0" y="-33" fill="beige"></rect>
    
<!--    <rect width="25" height="1" x="510" y="-1" fill="beige"></rect>
    <rect width="25" height="33" x="0" y="-33" fill="beige"></rect>-->
    
<!--    <rect width="25" height="1" x="540" y="-1" fill="beige"></rect>
    <rect width="25" height="33" x="0" y="-33" fill="beige"></rect>
    
    <rect width="25" height="1" x="570" y="-1" fill="beige"></rect>
    <rect width="25" height="33" x="0" y="-33" fill="beige"></rect>
    
    <rect width="25" height="1" x="600" y="-1" fill="beige"></rect>
    <rect width="25" height="33" x="0" y="-33" fill="beige"></rect>
    
    <rect width="25" height="1" x="630" y="-1" fill="beige"></rect>
    <rect width="25" height="33" x="0" y="-33" fill="beige"></rect>
    
    <rect width="25" height="1" x="660" y="-1" fill="beige"></rect>
    <rect width="25" height="33" x="0" y="-33" fill="beige"></rect>
    
    <rect width="25" height="1" x="690" y="-1" fill="beige"></rect>
    <rect width="25" height="33" x="0" y="-33" fill="beige"></rect>
    
    <rect width="25" height="1" x="720" y="-1" fill="beige"></rect>
    <rect width="25" height="33" x="0" y="-33" fill="beige"></rect>-->
    
    <rect width="25" height="4" x="750" y="-4" fill="beige"></rect>
    <rect width="25" height="33" x="0" y="-33" fill="beige"></rect>
    
<!--    <rect width="25" height="1" x="780" y="-1" fill="beige"></rect>
    <rect width="25" height="33" x="0" y="-33" fill="beige"></rect>-->
    
<!--    <rect width="25" height="1" x="810" y="-1" fill="beige"></rect>
    <rect width="25" height="33" x="0" y="-33" fill="beige"></rect>-->
    
    <rect width="25" height="3" x="840" y="-3" fill="beige"></rect>
    <rect width="25" height="33" x="0" y="-33" fill="beige"></rect>
    
<!--    <rect width="25" height="1" x="870" y="-1" fill="beige"></rect>
    <rect width="25" height="33" x="0" y="-33" fill="beige"></rect>-->
    
    <rect width="25" height="2" x="900" y="-2" fill="beige"></rect>
    <rect width="25" height="33" x="0" y="-33" fill="beige"></rect>
    
    <rect width="25" height="6" x="930" y="-6" fill="beige"></rect>
    <rect width="25" height="33" x="0" y="-33" fill="beige"></rect>
    
    <rect width="25" height="2" x="960" y="-2" fill="beige"></rect>
    <rect width="25" height="33" x="0" y="-33" fill="beige"></rect>
    
    <rect width="25" height="2" x="990" y="-2" fill="beige"></rect>
    <rect width="25" height="33" x="0" y="-33" fill="beige"></rect>
    
<!--    <rect width="25" height="1" x="1020" y="-1" fill="beige"></rect>
    <rect width="25" height="33" x="0" y="-33" fill="beige"></rect>
    
    <rect width="25" height="1" x="1050" y="-1" fill="beige"></rect>
    <rect width="25" height="33" x="0" y="-33" fill="beige"></rect>-->
    
    <rect width="25" height="2" x="1080" y="-2" fill="beige"></rect>
    <rect width="25" height="33" x="0" y="-33" fill="beige"></rect>
    
<!--    <rect width="25" height="1" x="1110" y="-1" fill="beige"></rect>
    <rect width="25" height="33" x="0" y="-33" fill="beige"></rect>
    
    <rect width="25" height="1" x="1140" y="-1" fill="beige"></rect>
    <rect width="25" height="33" x="0" y="-33" fill="beige"></rect>
    
    <rect width="25" height="1" x="1170" y="-1" fill="beige"></rect>
    <rect width="25" height="33" x="0" y="-33" fill="beige"></rect>
    
    <rect width="25" height="1" x="1200" y="-1" fill="beige"></rect>
    <rect width="25" height="33" x="0" y="-33" fill="beige"></rect>
    
    <rect width="25" height="1" x="1230" y="-1" fill="beige"></rect>
    <rect width="25" height="33" x="0" y="-33" fill="beige"></rect>
    
    <rect width="25" height="1" x="1260" y="-1" fill="beige"></rect>
    <rect width="25" height="33" x="0" y="-33" fill="beige"></rect>
    
    <rect width="25" height="1" x="1290" y="-1" fill="beige"></rect>
    <rect width="25" height="33" x="0" y="-33" fill="beige"></rect>
    
    <rect width="25" height="1" x="1320" y="-1" fill="beige"></rect>
    <rect width="25" height="33" x="0" y="-33" fill="beige"></rect>-->
    
    
    
    
   <text y="100">Agamemnon</text>
    <text y="100">generic</text>
    <text y="100">Achilles</text> 
    <text y="100">Hephaistos</text>
    <text y="100">Odysseus</text>
    <text y="100">Thersites</text>
    <text y="100">Nestor</text>
    <text y="100">Tlepolemos</text>
    <text y="100">Nireus</text>
    <text y="100">Polites</text>
    <text y="100">Menelaos</text>
    <text y="100">Dares</text>
    <text y="100">Phereklos</text>
    <text y="100">Pandarus</text>
    <text y="100">Turnus</text>
    <text y="100">Tydeus</text>
    <text y="100">Diomedes</text>
    <text y="100">Herkules</text>
    <text y="100">Diocles</text>
    <text y="100">Selagus</text>
    <text y="100">Akamas</text>
    <text y="100">Axylos</text>
    <text y="100">Lycurgus</text>
    <text y="100">Bellerophon</text>
    <text y="100">Ereuthalion</text>
    <text y="100">Ajax</text>
    <text y="100">Teucer</text>
    <text y="100">Ares</text>
    <text y="100">Hektor</text>
    <text y="100">Ides</text>
    <text y="100">Dolon</text>
    <text y="100">Patroklos</text>
    <text y="100">Machaon</text>
    <text y="100">Moulios</text>
    <text y="100">Sarpedon</text>
    <text y="100">Imbrios</text>
    <text y="100">Euchenor</text>
    <text y="100">Askalaphos</text>
    <text y="100">Automedon</text>
    <text y="100">Apisaon</text>
    <text y="100">Pylaios</text>
    <text y="100">Demoleon</text>
    <text y="100">Eumelos</text>
    <text y="100">Priam</text>
    <text y="100">Polyktor</text>
    
    
   
    
</svg>